<svg width="217" height="58" viewBox="0 0 217 58" fill="none" xmlns="http://www.w3.org/2000/svg">
<path d="M77.09 17.692C78.1127 17.8827 78.9533 18.394 79.612 19.226C80.2707 20.058 80.6 21.0113 80.6 22.086C80.6 23.0567 80.3573 23.9147 79.872 24.66C79.404 25.388 78.7193 25.96 77.818 26.376C76.9167 26.792 75.8507 27 74.62 27H66.794V8.852H74.282C75.5127 8.852 76.57 9.05133 77.454 9.45C78.3553 9.84867 79.0313 10.4033 79.482 11.114C79.95 11.8247 80.184 12.6307 80.184 13.532C80.184 14.5893 79.898 15.4733 79.326 16.184C78.7713 16.8947 78.026 17.3973 77.09 17.692ZM70.434 16.34H73.762C74.6287 16.34 75.296 16.1493 75.764 15.768C76.232 15.3693 76.466 14.806 76.466 14.078C76.466 13.35 76.232 12.7867 75.764 12.388C75.296 11.9893 74.6287 11.79 73.762 11.79H70.434V16.34ZM74.1 24.036C74.984 24.036 75.6687 23.828 76.154 23.412C76.6567 22.996 76.908 22.4067 76.908 21.644C76.908 20.864 76.648 20.2573 76.128 19.824C75.608 19.3733 74.906 19.148 74.022 19.148H70.434V24.036H74.1ZM89.897 27.234C88.5104 27.234 87.2624 26.9307 86.153 26.324C85.0437 25.7 84.1684 24.8247 83.527 23.698C82.903 22.5713 82.591 21.2713 82.591 19.798C82.591 18.3247 82.9117 17.0247 83.553 15.898C84.2117 14.7713 85.1044 13.9047 86.231 13.298C87.3577 12.674 88.6144 12.362 90.001 12.362C91.3877 12.362 92.6444 12.674 93.771 13.298C94.8977 13.9047 95.7817 14.7713 96.423 15.898C97.0817 17.0247 97.411 18.3247 97.411 19.798C97.411 21.2713 97.073 22.5713 96.397 23.698C95.7384 24.8247 94.837 25.7 93.693 26.324C92.5664 26.9307 91.301 27.234 89.897 27.234ZM89.897 24.062C90.5557 24.062 91.171 23.906 91.743 23.594C92.3324 23.2647 92.8004 22.7793 93.147 22.138C93.4937 21.4967 93.667 20.7167 93.667 19.798C93.667 18.4287 93.303 17.38 92.575 16.652C91.8644 15.9067 90.989 15.534 89.949 15.534C88.909 15.534 88.0337 15.9067 87.323 16.652C86.6297 17.38 86.283 18.4287 86.283 19.798C86.283 21.1673 86.621 22.2247 87.297 22.97C87.9904 23.698 88.857 24.062 89.897 24.062ZM99.1451 19.746C99.1451 18.29 99.4311 16.9987 100.003 15.872C100.592 14.7453 101.39 13.8787 102.395 13.272C103.4 12.6653 104.518 12.362 105.749 12.362C106.685 12.362 107.578 12.57 108.427 12.986C109.276 13.3847 109.952 13.922 110.455 14.598V7.76H114.147V27H110.455V24.868C110.004 25.5787 109.372 26.1507 108.557 26.584C107.742 27.0173 106.798 27.234 105.723 27.234C104.51 27.234 103.4 26.922 102.395 26.298C101.39 25.674 100.592 24.7987 100.003 23.672C99.4311 22.528 99.1451 21.2193 99.1451 19.746ZM110.481 19.798C110.481 18.914 110.308 18.16 109.961 17.536C109.614 16.8947 109.146 16.4093 108.557 16.08C107.968 15.7333 107.335 15.56 106.659 15.56C105.983 15.56 105.359 15.7247 104.787 16.054C104.215 16.3833 103.747 16.8687 103.383 17.51C103.036 18.134 102.863 18.8793 102.863 19.746C102.863 20.6127 103.036 21.3753 103.383 22.034C103.747 22.6753 104.215 23.1693 104.787 23.516C105.376 23.8627 106 24.036 106.659 24.036C107.335 24.036 107.968 23.8713 108.557 23.542C109.146 23.1953 109.614 22.71 109.961 22.086C110.308 21.4447 110.481 20.682 110.481 19.798ZM131.482 12.596L122.564 33.812H118.69L121.81 26.636L116.038 12.596H120.12L123.838 22.658L127.608 12.596H131.482Z" fill="#FF8139"/>
<path d="M139.71 27.182C138.445 27.182 137.301 26.9653 136.278 26.532C135.273 26.0987 134.476 25.4747 133.886 24.66C133.297 23.8453 132.994 22.8833 132.976 21.774H136.876C136.928 22.5193 137.188 23.1087 137.656 23.542C138.142 23.9753 138.8 24.192 139.632 24.192C140.482 24.192 141.149 23.9927 141.634 23.594C142.12 23.178 142.362 22.6407 142.362 21.982C142.362 21.4447 142.198 21.0027 141.868 20.656C141.539 20.3093 141.123 20.0407 140.62 19.85C140.135 19.642 139.459 19.4167 138.592 19.174C137.414 18.8273 136.452 18.4893 135.706 18.16C134.978 17.8133 134.346 17.302 133.808 16.626C133.288 15.9327 133.028 15.014 133.028 13.87C133.028 12.7953 133.297 11.8593 133.834 11.062C134.372 10.2647 135.126 9.658 136.096 9.242C137.067 8.80867 138.176 8.592 139.424 8.592C141.296 8.592 142.813 9.05133 143.974 9.97C145.153 10.8713 145.803 12.1367 145.924 13.766H141.92C141.886 13.142 141.617 12.6307 141.114 12.232C140.629 11.816 139.979 11.608 139.164 11.608C138.454 11.608 137.882 11.79 137.448 12.154C137.032 12.518 136.824 13.0467 136.824 13.74C136.824 14.2253 136.98 14.6327 137.292 14.962C137.622 15.274 138.02 15.534 138.488 15.742C138.974 15.9327 139.65 16.158 140.516 16.418C141.695 16.7647 142.657 17.1113 143.402 17.458C144.148 17.8047 144.789 18.3247 145.326 19.018C145.864 19.7113 146.132 20.6213 146.132 21.748C146.132 22.7187 145.881 23.62 145.378 24.452C144.876 25.284 144.139 25.9513 143.168 26.454C142.198 26.9393 141.045 27.182 139.71 27.182ZM157.4 12.388C158.492 12.388 159.463 12.6307 160.312 13.116C161.161 13.584 161.82 14.286 162.288 15.222C162.773 16.1407 163.016 17.25 163.016 18.55V27H159.376V19.044C159.376 17.9 159.09 17.0247 158.518 16.418C157.946 15.794 157.166 15.482 156.178 15.482C155.173 15.482 154.375 15.794 153.786 16.418C153.214 17.0247 152.928 17.9 152.928 19.044V27H149.288V7.76H152.928V14.39C153.396 13.766 154.02 13.2807 154.8 12.934C155.58 12.57 156.447 12.388 157.4 12.388ZM165.542 19.746C165.542 18.29 165.828 16.9987 166.4 15.872C166.989 14.7453 167.778 13.8787 168.766 13.272C169.771 12.6653 170.889 12.362 172.12 12.362C173.194 12.362 174.13 12.5787 174.928 13.012C175.742 13.4453 176.392 13.9913 176.878 14.65V12.596H180.544V27H176.878V24.894C176.41 25.57 175.76 26.1333 174.928 26.584C174.113 27.0173 173.168 27.234 172.094 27.234C170.88 27.234 169.771 26.922 168.766 26.298C167.778 25.674 166.989 24.7987 166.4 23.672C165.828 22.528 165.542 21.2193 165.542 19.746ZM176.878 19.798C176.878 18.914 176.704 18.16 176.358 17.536C176.011 16.8947 175.543 16.4093 174.954 16.08C174.364 15.7333 173.732 15.56 173.056 15.56C172.38 15.56 171.756 15.7247 171.184 16.054C170.612 16.3833 170.144 16.8687 169.78 17.51C169.433 18.134 169.26 18.8793 169.26 19.746C169.26 20.6127 169.433 21.3753 169.78 22.034C170.144 22.6753 170.612 23.1693 171.184 23.516C171.773 23.8627 172.397 24.036 173.056 24.036C173.732 24.036 174.364 23.8713 174.954 23.542C175.543 23.1953 176.011 22.71 176.358 22.086C176.704 21.4447 176.878 20.682 176.878 19.798ZM187.739 14.676C188.207 14.0173 188.848 13.4713 189.663 13.038C190.495 12.5873 191.439 12.362 192.497 12.362C193.727 12.362 194.837 12.6653 195.825 13.272C196.83 13.8787 197.619 14.7453 198.191 15.872C198.78 16.9813 199.075 18.2727 199.075 19.746C199.075 21.2193 198.78 22.528 198.191 23.672C197.619 24.7987 196.83 25.674 195.825 26.298C194.837 26.922 193.727 27.234 192.497 27.234C191.439 27.234 190.503 27.0173 189.689 26.584C188.891 26.1507 188.241 25.6047 187.739 24.946V33.864H184.099V12.596H187.739V14.676ZM195.357 19.746C195.357 18.8793 195.175 18.134 194.811 17.51C194.464 16.8687 193.996 16.3833 193.407 16.054C192.835 15.7247 192.211 15.56 191.535 15.56C190.876 15.56 190.252 15.7333 189.663 16.08C189.091 16.4093 188.623 16.8947 188.259 17.536C187.912 18.1773 187.739 18.9313 187.739 19.798C187.739 20.6647 187.912 21.4187 188.259 22.06C188.623 22.7013 189.091 23.1953 189.663 23.542C190.252 23.8713 190.876 24.036 191.535 24.036C192.211 24.036 192.835 23.8627 193.407 23.516C193.996 23.1693 194.464 22.6753 194.811 22.034C195.175 21.3927 195.357 20.63 195.357 19.746ZM215.11 19.486C215.11 20.006 215.075 20.474 215.006 20.89H204.476C204.562 21.93 204.926 22.7447 205.568 23.334C206.209 23.9233 206.998 24.218 207.934 24.218C209.286 24.218 210.248 23.6373 210.82 22.476H214.746C214.33 23.8627 213.532 25.0067 212.354 25.908C211.175 26.792 209.728 27.234 208.012 27.234C206.625 27.234 205.377 26.9307 204.268 26.324C203.176 25.7 202.318 24.8247 201.694 23.698C201.087 22.5713 200.784 21.2713 200.784 19.798C200.784 18.3073 201.087 16.9987 201.694 15.872C202.3 14.7453 203.15 13.8787 204.242 13.272C205.334 12.6653 206.59 12.362 208.012 12.362C209.381 12.362 210.603 12.6567 211.678 13.246C212.77 13.8353 213.61 14.676 214.2 15.768C214.806 16.8427 215.11 18.082 215.11 19.486ZM211.34 18.446C211.322 17.51 210.984 16.7647 210.326 16.21C209.667 15.638 208.861 15.352 207.908 15.352C207.006 15.352 206.244 15.6293 205.62 16.184C205.013 16.7213 204.64 17.4753 204.502 18.446H211.34Z" fill="#222222"/>
<path d="M72.065 39.545V40.655H67.52V44.18H71.21V45.29H67.52V50H66.155V39.545H72.065ZM75.6186 40.445C75.3586 40.445 75.1386 40.355 74.9586 40.175C74.7786 39.995 74.6886 39.775 74.6886 39.515C74.6886 39.255 74.7786 39.035 74.9586 38.855C75.1386 38.675 75.3586 38.585 75.6186 38.585C75.8686 38.585 76.0786 38.675 76.2486 38.855C76.4286 39.035 76.5186 39.255 76.5186 39.515C76.5186 39.775 76.4286 39.995 76.2486 40.175C76.0786 40.355 75.8686 40.445 75.6186 40.445ZM76.2786 41.78V50H74.9136V41.78H76.2786ZM81.47 42.905V47.75C81.47 48.15 81.555 48.435 81.725 48.605C81.895 48.765 82.19 48.845 82.61 48.845H83.615V50H82.385C81.625 50 81.055 49.825 80.675 49.475C80.295 49.125 80.105 48.55 80.105 47.75V42.905H79.04V41.78H80.105V39.71H81.47V41.78H83.615V42.905H81.47ZM90.4739 41.63C91.4739 41.63 92.2839 41.935 92.9039 42.545C93.5239 43.145 93.8339 44.015 93.8339 45.155V50H92.4839V45.35C92.4839 44.53 92.2789 43.905 91.8689 43.475C91.4589 43.035 90.8989 42.815 90.1889 42.815C89.4689 42.815 88.8939 43.04 88.4639 43.49C88.0439 43.94 87.8339 44.595 87.8339 45.455V50H86.4689V41.78H87.8339V42.95C88.1039 42.53 88.4689 42.205 88.9289 41.975C89.3989 41.745 89.9139 41.63 90.4739 41.63ZM104.764 45.575C104.764 45.835 104.749 46.11 104.719 46.4H98.1486C98.1986 47.21 98.4736 47.845 98.9736 48.305C99.4836 48.755 100.099 48.98 100.819 48.98C101.409 48.98 101.899 48.845 102.289 48.575C102.689 48.295 102.969 47.925 103.129 47.465H104.599C104.379 48.255 103.939 48.9 103.279 49.4C102.619 49.89 101.799 50.135 100.819 50.135C100.039 50.135 99.3386 49.96 98.7186 49.61C98.1086 49.26 97.6286 48.765 97.2786 48.125C96.9286 47.475 96.7536 46.725 96.7536 45.875C96.7536 45.025 96.9236 44.28 97.2636 43.64C97.6036 43 98.0786 42.51 98.6886 42.17C99.3086 41.82 100.019 41.645 100.819 41.645C101.599 41.645 102.289 41.815 102.889 42.155C103.489 42.495 103.949 42.965 104.269 43.565C104.599 44.155 104.764 44.825 104.764 45.575ZM103.354 45.29C103.354 44.77 103.239 44.325 103.009 43.955C102.779 43.575 102.464 43.29 102.064 43.1C101.674 42.9 101.239 42.8 100.759 42.8C100.069 42.8 99.4786 43.02 98.9886 43.46C98.5086 43.9 98.2336 44.51 98.1636 45.29H103.354ZM110.675 50.135C110.045 50.135 109.48 50.03 108.98 49.82C108.48 49.6 108.085 49.3 107.795 48.92C107.505 48.53 107.345 48.085 107.315 47.585H108.725C108.765 47.995 108.955 48.33 109.295 48.59C109.645 48.85 110.1 48.98 110.66 48.98C111.18 48.98 111.59 48.865 111.89 48.635C112.19 48.405 112.34 48.115 112.34 47.765C112.34 47.405 112.18 47.14 111.86 46.97C111.54 46.79 111.045 46.615 110.375 46.445C109.765 46.285 109.265 46.125 108.875 45.965C108.495 45.795 108.165 45.55 107.885 45.23C107.615 44.9 107.48 44.47 107.48 43.94C107.48 43.52 107.605 43.135 107.855 42.785C108.105 42.435 108.46 42.16 108.92 41.96C109.38 41.75 109.905 41.645 110.495 41.645C111.405 41.645 112.14 41.875 112.7 42.335C113.26 42.795 113.56 43.425 113.6 44.225H112.235C112.205 43.795 112.03 43.45 111.71 43.19C111.4 42.93 110.98 42.8 110.45 42.8C109.96 42.8 109.57 42.905 109.28 43.115C108.99 43.325 108.845 43.6 108.845 43.94C108.845 44.21 108.93 44.435 109.1 44.615C109.28 44.785 109.5 44.925 109.76 45.035C110.03 45.135 110.4 45.25 110.87 45.38C111.46 45.54 111.94 45.7 112.31 45.86C112.68 46.01 112.995 46.24 113.255 46.55C113.525 46.86 113.665 47.265 113.675 47.765C113.675 48.215 113.55 48.62 113.3 48.98C113.05 49.34 112.695 49.625 112.235 49.835C111.785 50.035 111.265 50.135 110.675 50.135ZM119.712 50.135C119.082 50.135 118.517 50.03 118.017 49.82C117.517 49.6 117.122 49.3 116.832 48.92C116.542 48.53 116.382 48.085 116.352 47.585H117.762C117.802 47.995 117.992 48.33 118.332 48.59C118.682 48.85 119.137 48.98 119.697 48.98C120.217 48.98 120.627 48.865 120.927 48.635C121.227 48.405 121.377 48.115 121.377 47.765C121.377 47.405 121.217 47.14 120.897 46.97C120.577 46.79 120.082 46.615 119.412 46.445C118.802 46.285 118.302 46.125 117.912 45.965C117.532 45.795 117.202 45.55 116.922 45.23C116.652 44.9 116.517 44.47 116.517 43.94C116.517 43.52 116.642 43.135 116.892 42.785C117.142 42.435 117.497 42.16 117.957 41.96C118.417 41.75 118.942 41.645 119.532 41.645C120.442 41.645 121.177 41.875 121.737 42.335C122.297 42.795 122.597 43.425 122.637 44.225H121.272C121.242 43.795 121.067 43.45 120.747 43.19C120.437 42.93 120.017 42.8 119.487 42.8C118.997 42.8 118.607 42.905 118.317 43.115C118.027 43.325 117.882 43.6 117.882 43.94C117.882 44.21 117.967 44.435 118.137 44.615C118.317 44.785 118.537 44.925 118.797 45.035C119.067 45.135 119.437 45.25 119.907 45.38C120.497 45.54 120.977 45.7 121.347 45.86C121.717 46.01 122.032 46.24 122.292 46.55C122.562 46.86 122.702 47.265 122.712 47.765C122.712 48.215 122.587 48.62 122.337 48.98C122.087 49.34 121.732 49.625 121.272 49.835C120.822 50.035 120.302 50.135 119.712 50.135ZM139.063 50L137.698 48.62C137.188 49.15 136.643 49.545 136.063 49.805C135.483 50.055 134.828 50.18 134.098 50.18C133.378 50.18 132.738 50.05 132.178 49.79C131.628 49.53 131.198 49.16 130.888 48.68C130.588 48.2 130.438 47.64 130.438 47C130.438 46.27 130.643 45.63 131.053 45.08C131.473 44.52 132.088 44.08 132.898 43.76C132.578 43.38 132.348 43.03 132.208 42.71C132.068 42.39 131.998 42.04 131.998 41.66C131.998 41.22 132.108 40.825 132.328 40.475C132.558 40.115 132.883 39.835 133.303 39.635C133.723 39.435 134.208 39.335 134.758 39.335C135.298 39.335 135.768 39.44 136.168 39.65C136.568 39.86 136.868 40.155 137.068 40.535C137.268 40.905 137.358 41.32 137.338 41.78H135.973C135.983 41.37 135.868 41.05 135.628 40.82C135.388 40.58 135.078 40.46 134.698 40.46C134.298 40.46 133.973 40.575 133.723 40.805C133.483 41.025 133.363 41.31 133.363 41.66C133.363 41.96 133.443 42.25 133.603 42.53C133.773 42.81 134.053 43.155 134.443 43.565L137.563 46.7L137.833 46.28L138.853 44.57H140.323L139.093 46.7C138.923 47 138.723 47.315 138.493 47.645L140.848 50H139.063ZM134.098 49.01C134.638 49.01 135.123 48.905 135.553 48.695C135.993 48.485 136.408 48.16 136.798 47.72L133.723 44.63C132.443 45.12 131.803 45.895 131.803 46.955C131.803 47.545 132.013 48.035 132.433 48.425C132.863 48.815 133.418 49.01 134.098 49.01ZM161.666 39.545L158.636 50H157.106L154.676 41.585L152.156 50L150.641 50.015L147.716 39.545H149.171L151.451 48.41L153.971 39.545H155.501L157.901 48.38L160.196 39.545H161.666ZM167.945 50.135C167.175 50.135 166.475 49.96 165.845 49.61C165.225 49.26 164.735 48.765 164.375 48.125C164.025 47.475 163.85 46.725 163.85 45.875C163.85 45.035 164.03 44.295 164.39 43.655C164.76 43.005 165.26 42.51 165.89 42.17C166.52 41.82 167.225 41.645 168.005 41.645C168.785 41.645 169.49 41.82 170.12 42.17C170.75 42.51 171.245 43 171.605 43.64C171.975 44.28 172.16 45.025 172.16 45.875C172.16 46.725 171.97 47.475 171.59 48.125C171.22 48.765 170.715 49.26 170.075 49.61C169.435 49.96 168.725 50.135 167.945 50.135ZM167.945 48.935C168.435 48.935 168.895 48.82 169.325 48.59C169.755 48.36 170.1 48.015 170.36 47.555C170.63 47.095 170.765 46.535 170.765 45.875C170.765 45.215 170.635 44.655 170.375 44.195C170.115 43.735 169.775 43.395 169.355 43.175C168.935 42.945 168.48 42.83 167.99 42.83C167.49 42.83 167.03 42.945 166.61 43.175C166.2 43.395 165.87 43.735 165.62 44.195C165.37 44.655 165.245 45.215 165.245 45.875C165.245 46.545 165.365 47.11 165.605 47.57C165.855 48.03 166.185 48.375 166.595 48.605C167.005 48.825 167.455 48.935 167.945 48.935ZM176.52 43.115C176.76 42.645 177.1 42.28 177.54 42.02C177.99 41.76 178.535 41.63 179.175 41.63V43.04H178.815C177.285 43.04 176.52 43.87 176.52 45.53V50H175.155V41.78H176.52V43.115ZM186.54 50L183.315 46.37V50H181.95V38.9H183.315V45.425L186.48 41.78H188.385L184.515 45.875L188.4 50H186.54ZM194.455 50.135C193.685 50.135 192.985 49.96 192.355 49.61C191.735 49.26 191.245 48.765 190.885 48.125C190.535 47.475 190.36 46.725 190.36 45.875C190.36 45.035 190.54 44.295 190.9 43.655C191.27 43.005 191.77 42.51 192.4 42.17C193.03 41.82 193.735 41.645 194.515 41.645C195.295 41.645 196 41.82 196.63 42.17C197.26 42.51 197.755 43 198.115 43.64C198.485 44.28 198.67 45.025 198.67 45.875C198.67 46.725 198.48 47.475 198.1 48.125C197.73 48.765 197.225 49.26 196.585 49.61C195.945 49.96 195.235 50.135 194.455 50.135ZM194.455 48.935C194.945 48.935 195.405 48.82 195.835 48.59C196.265 48.36 196.61 48.015 196.87 47.555C197.14 47.095 197.275 46.535 197.275 45.875C197.275 45.215 197.145 44.655 196.885 44.195C196.625 43.735 196.285 43.395 195.865 43.175C195.445 42.945 194.99 42.83 194.5 42.83C194 42.83 193.54 42.945 193.12 43.175C192.71 43.395 192.38 43.735 192.13 44.195C191.88 44.655 191.755 45.215 191.755 45.875C191.755 46.545 191.875 47.11 192.115 47.57C192.365 48.03 192.695 48.375 193.105 48.605C193.515 48.825 193.965 48.935 194.455 48.935ZM208.955 41.78V50H207.59V48.785C207.33 49.205 206.965 49.535 206.495 49.775C206.035 50.005 205.525 50.12 204.965 50.12C204.325 50.12 203.75 49.99 203.24 49.73C202.73 49.46 202.325 49.06 202.025 48.53C201.735 48 201.59 47.355 201.59 46.595V41.78H202.94V46.415C202.94 47.225 203.145 47.85 203.555 48.29C203.965 48.72 204.525 48.935 205.235 48.935C205.965 48.935 206.54 48.71 206.96 48.26C207.38 47.81 207.59 47.155 207.59 46.295V41.78H208.955ZM214.124 42.905V47.75C214.124 48.15 214.209 48.435 214.379 48.605C214.549 48.765 214.844 48.845 215.264 48.845H216.269V50H215.039C214.279 50 213.709 49.825 213.329 49.475C212.949 49.125 212.759 48.55 212.759 47.75V42.905H211.694V41.78H212.759V39.71H214.124V41.78H216.269V42.905H214.124Z" fill="#444444"/>
<path d="M42.1633 14.5829C42.4708 12 45.3663 11.2518 46.7756 11.2006C43.4548 9.97067 42.1121 6.12714 41.8558 4.35912C39.0885 3.49818 37.423 4.0004 36.9361 4.35912C34.5378 5.22007 33.9382 3.59042 33.9382 2.66798C33.3232 2.60648 33.1182 2.28362 33.0926 2.12988C33.0311 0.838459 34.3994 0.208122 35.0912 0.0543812C37.4281 -0.314597 43.0858 1.28431 45.6225 2.12988C52.8176 4.34375 55.5388 7.92079 56 9.43257V11.5849C55.6925 18.534 50.9009 22.7824 48.5436 24.038C49.097 25.5754 49.0817 33.7492 49.0048 37.644C48.7588 41.9488 46.9549 45.1773 46.0837 46.2535C45.8019 48.8671 45.1766 54.4479 44.9307 55.8623C44.6847 57.2767 44.0082 57.6303 43.7007 57.6303L39.0116 56.9385L38.5504 33.8005L43.7007 34.5692L42.1633 14.5829Z" fill="#FF8139"/>
<path d="M35.9369 27.6508L35.3219 20.2713C34.092 22.7926 32.4521 22.808 31.7859 22.5005C32.0319 14.506 26.7637 13.2248 24.0988 13.5835C16.9038 14.506 15.1562 20.7837 15.1819 23.8073C16.0428 23.3768 18.4104 24.2429 19.4866 24.7298L19.871 28.3427C21.8388 27.9737 23.3045 29.8288 23.7913 30.8025C17.867 31.2945 16.6081 36.6959 16.7193 39.3351C13.5215 38.0437 12.517 41.0519 12.4145 42.7174C8.35577 42.041 5.54744 38.5921 4.65062 36.9522C3.91266 35.3533 5.67555 35.4147 6.64925 35.6454C9.41658 34.1848 7.57169 32.6474 7.72543 31.8787C7.84842 31.2637 7.3667 30.905 7.11047 30.8025C3.42069 28.5887 1.31956 31.725 0.730225 33.5699C-0.315216 35.1073 -0.0128593 37.1828 0.269001 38.0283L1.65267 40.9494C6.1419 48.5135 10.2365 51.3269 11.7227 51.7882C16.8884 52.6491 23.0995 46.9197 25.5594 43.9474C28.3267 44.1319 28.7623 49.0464 28.6342 51.4807V55.4011L38.3967 56.8616L30.3253 26.959L35.9369 27.6508Z" fill="#222222"/>
</svg>
